# xmcd
# 
# Track frame offsets:
#     182
#     23127
#     44722
#     66515
#     92592
#     113245
#     135917
#     161677
#     180760
#     203820
# 
# Disc length: 3028
# 
# Revision: 0
# Processed by: cddbd v1.5.2PL0 Copyright (c) Steve Scherf et al.
# Submitted via: BonkEnc v1.0.15
# 
DISCID=810bd20a
DTITLE=Jean-Pierre Ferland - Bleu, blanc, blues
DYEAR=1992
DGENRE=Chanson
TTITLE0=J'ai coupé mon arbre
TTITLE1=Le coeur au beurre noir
TTITLE2=T'es belle
TTITLE3=Montréal est une femme
TTITLE4=On dirait que tu m'aimes plus
TTITLE5=La belle mélancolie
TTITLE6=Pissou
TTITLE7=Un gentilhomme et un champion
TTITLE8=Mon copain Denise
TTITLE9=Un peu plus haut
EXTD=
EXTT0=
EXTT1=
EXTT2=
EXTT3=
EXTT4=
EXTT5=
EXTT6=
EXTT7=
EXTT8=
EXTT9=
PLAYORDER=
